HIERARCHY
ROOT Hips
{
	OFFSET -3.958830 18.904000 13.208200
	CHANNELS 6 Xposition Yposition Zposition Zrotation Yrotation Xrotation 
	JOINT LHipJoint
	{
		OFFSET 0.000000 0.000000 0.000000
		CHANNELS 3 Zrotation Yrotation Xrotation
		JOINT LeftUpLeg
		{
			OFFSET 1.800000 -1.400000 0.085000
			CHANNELS 3 Zrotation Yrotation Xrotation
			JOINT LeftLeg
			{
				OFFSET 2.215000 -6.000000 0.000000
				CHANNELS 3 Zrotation Yrotation Xrotation
				JOINT LeftFoot
				{
					OFFSET 2.500000 -6.900000 0.000000
					CHANNELS 3 Zrotation Yrotation Xrotation
					JOINT LeftToeBase
					{
						OFFSET 0.200000 -0.500000 1.950000
						CHANNELS 3 Zrotation Yrotation Xrotation
						End Site
						{
							OFFSET 0.000000 0.000000 0.000000
						}
					}
				}
			}
		}
	}
	JOINT RHipJoint
	{
		OFFSET 0.000000 0.000000 0.000000
		CHANNELS 3 Zrotation Yrotation Xrotation
		JOINT RightUpLeg
		{
			OFFSET -1.800000 -1.400000 0.085000
			CHANNELS 3 Zrotation Yrotation Xrotation
			JOINT RightLeg
			{
				OFFSET -2.215000 -6.000000 0.000000
				CHANNELS 3 Zrotation Yrotation Xrotation
				JOINT RightFoot
				{
					OFFSET -2.500000 -6.900000 0.000000
					CHANNELS 3 Zrotation Yrotation Xrotation
					JOINT RightToeBase
					{
						OFFSET -0.200000 -0.500000 1.950000
						CHANNELS 3 Zrotation Yrotation Xrotation
						End Site
						{
							OFFSET 0.000000 0.000000 0.000000
						}
					}
				}
			}
		}
	}
	JOINT LowerBack
	{
		OFFSET 0.000000 0.000000 0.000000
		CHANNELS 3 Zrotation Yrotation Xrotation
		JOINT Spine
		{
			OFFSET -0.087000 1.940000 -0.288900
			CHANNELS 3 Zrotation Yrotation Xrotation
			JOINT Spine1
			{
				OFFSET 0.000000 1.950000 0.060000
				CHANNELS 3 Zrotation Yrotation Xrotation
				JOINT Neck
				{
					OFFSET 0.000000 0.000000 0.000000
					CHANNELS 3 Zrotation Yrotation Xrotation
					JOINT Neck1
					{
						OFFSET 0.000000 1.600000 0.340000
						CHANNELS 3 Zrotation Yrotation Xrotation
						JOINT Head
						{
							OFFSET 0.000000 1.667000 -0.240000
							CHANNELS 3 Zrotation Yrotation Xrotation
							End Site
							{
								OFFSET 0.000000 0.000000 0.000000
							}
						}
					}
				}
				JOINT LeftShoulder
				{
					OFFSET 0.000000 0.000000 0.000000
					CHANNELS 3 Zrotation Yrotation Xrotation
					JOINT LeftArm
					{
						OFFSET 2.700000 1.550000 -0.730000
						CHANNELS 3 Zrotation Yrotation Xrotation
						JOINT LeftForeArm
						{
							OFFSET 5.450000 0.000000 0.000000
							CHANNELS 3 Zrotation Yrotation Xrotation
							JOINT LeftHand
							{
								OFFSET 3.450000 0.000000 0.000000
								CHANNELS 3 Zrotation Yrotation Xrotation
								JOINT LeftHandIndex1
								{
									OFFSET 0.750000 0.000000 0.000000
									CHANNELS 3 Zrotation Yrotation Xrotation
									End Site
									{
										OFFSET 0.000000 0.000000 0.000000
									}
								}
							}
						}
					}
				}
				JOINT RightShoulder
				{
					OFFSET 0.000000 0.000000 0.000000
					CHANNELS 3 Zrotation Yrotation Xrotation
					JOINT RightArm
					{
						OFFSET -2.700000 1.550000 -0.730000
						CHANNELS 3 Zrotation Yrotation Xrotation
						JOINT RightForeArm
						{
							OFFSET -5.450000 0.000000 0.000000
							CHANNELS 3 Zrotation Yrotation Xrotation
							JOINT RightHand
							{
								OFFSET -3.450000 0.000000 0.000000
								CHANNELS 3 Zrotation Yrotation Xrotation
								JOINT RightHandIndex1
								{
									OFFSET -0.750000 0.000000 0.000000
									CHANNELS 3 Zrotation Yrotation Xrotation
									End Site
									{
										OFFSET 0.000000 0.000000 0.000000
									}
								}
							}
						}
					}
				}
			}
		}
	}
}
MOTION
Frames: 12
Frame Time: 0.016667
0.768490 17.060700 -1.419940 -2.857378 7.444956 0.049830 -15.195310 13.480139 3.134449 2.763833 0.292655 -3.043320 -6.014105 5.194264 7.578272 0.327762 3.457374 3.380868 0.188220 0.127940 0.325340 18.032760 -11.525756 2.890907 -4.947765 0.405840 -8.190351 9.677508 -6.552256 17.849120 -0.299582 -3.989612 2.906180 -0.092600 -0.237270 0.052310 -3.362635 -0.803602 -7.978525 6.795009 3.539569 7.841514 1.943896 3.350457 2.392162 1.304862 2.494352 -15.121559 0.344858 -9.179794 47.104558 -2.380900 -8.563610 0.871590 -17.121235 -16.302662 6.790022 -0.935914 6.699970 -0.171578 -29.541490 -37.178397 10.903757 -3.280986 3.471599 0.139130 -0.154340 0.176070 -0.072220 14.920174 16.687691 11.432963 10.060153 -7.353441 -0.064679 63.038269 37.929028 19.096763 2.749453 -1.994652 0.157530 -0.186990 -0.239020 0.007460 
0.776210 17.058750 -1.431380 -2.878946 7.574437 -0.357519 -15.185608 13.498784 3.134475 2.784716 0.333460 -2.826690 -5.810005 5.189298 7.743479 0.338442 3.466901 3.381581 0.195250 0.139190 0.324530 18.033588 -11.557424 2.877372 -5.055797 0.620402 -8.676648 9.691096 -6.763820 19.323590 -0.311441 -4.082613 2.864894 -0.089100 -0.230030 0.059220 -3.385897 -0.773731 -7.985808 7.021140 3.575921 8.470111 1.642895 3.484431 2.429899 1.300548 2.652605 -15.047634 0.676329 -9.519999 46.970189 -2.060080 -9.034520 0.631450 -17.054267 -16.491933 6.647925 -0.285965 6.091688 -0.178687 -27.955664 -36.729913 10.346174 -3.284438 3.463403 0.131440 -0.153340 0.179270 -0.065320 14.791528 16.842974 11.389608 9.416296 -6.966173 -0.026670 62.236449 38.066568 18.960537 2.750475 -1.996102 0.166480 -0.183150 -0.242250 0.018170 
0.792660 17.054620 -1.447980 -2.713241 7.786657 -0.926578 -15.187561 13.517600 3.128896 2.576547 0.418279 -2.565118 -5.561361 5.246861 8.350568 0.333080 3.499184 3.370704 0.198330 0.137280 0.330940 18.016498 -11.606604 2.854681 -5.791700 1.076366 -9.759258 10.109197 -7.298240 21.977547 -0.330272 -4.315076 2.770242 -0.088300 -0.228490 0.063290 -3.370673 -0.701758 -7.986465 6.839564 3.711880 9.325737 1.377127 3.678428 2.470914 1.371580 3.201721 -15.118045 1.822771 -10.414671 46.725488 -2.206760 -9.612860 0.495940 -16.803041 -17.067796 6.618116 0.745167 5.418232 -0.229791 -24.839350 -35.495295 9.145908 -3.292019 3.430526 0.130520 -0.148890 0.175450 -0.069190 14.300929 17.193566 11.374693 8.343314 -6.257571 0.037085 60.664475 38.631884 18.876075 2.743047 -1.987647 0.167260 -0.180880 -0.238450 0.015270 
0.808420 17.050050 -1.463450 -2.772651 7.884503 -1.451313 -15.180604 13.511776 3.099928 2.716851 0.508049 -2.384734 -5.656021 5.412379 9.037996 0.343850 3.568590 3.351359 0.189250 0.132370 0.327330 18.014671 -11.629091 2.864178 -6.414817 1.808975 -11.355267 10.664382 -7.985500 25.394680 -0.362901 -4.661019 2.631156 -0.088610 -0.219030 0.067250 -3.385272 -0.594323 -7.989571 7.025293 3.879724 10.150657 1.069519 3.926466 2.548272 1.490844 3.761253 -15.178514 3.063156 -11.543291 45.790881 -2.862470 -10.145180 0.630120 -16.513252 -17.714495 6.648458 1.653174 4.714953 -0.382900 -20.532905 -33.707350 7.560117 -3.309824 3.383182 0.111600 -0.134770 0.167260 -0.071830 13.620822 17.673014 11.303195 7.293885 -5.147294 0.005593 57.318903 38.920615 17.997216 2.735657 -1.970357 0.169080 -0.177500 -0.233700 0.020840 
0.830540 17.044440 -1.482890 -2.912922 8.392511 -2.046876 -15.161081 13.474523 3.056592 2.836738 0.585217 -2.207143 -5.718646 5.563374 9.706875 0.347312 3.635248 3.335760 0.177460 0.120440 0.312890 18.032024 -11.628332 2.912711 -7.154778 2.642125 -13.069229 11.417261 -8.847571 28.989820 -0.414521 -5.123442 2.456677 -0.087970 -0.205140 0.064450 -3.455932 -0.457210 -8.012827 7.569620 3.880635 10.958974 0.435257 4.053731 2.868294 1.580215 4.332554 -15.430161 4.363622 -12.758592 44.804809 -3.246630 -10.989750 1.127480 -15.936321 -18.604723 6.809737 2.273620 3.661396 -0.629850 -15.478429 -31.483627 5.873644 -3.327813 3.313731 0.093940 -0.119430 0.147930 -0.070440 12.641271 18.342778 11.394742 6.716476 -4.081446 -0.236557 52.448229 39.355905 16.575922 2.713768 -1.945490 0.163320 -0.174800 -0.227310 0.024740 
0.855500 17.043310 -1.503290 -2.906427 8.927289 -2.829803 -15.154764 13.430719 3.017150 2.808207 0.717658 -1.710444 -5.667717 5.676904 10.274657 0.384394 3.684518 3.319942 0.201220 0.152650 0.318280 18.040068 -11.584393 2.997601 -8.360921 3.510460 -14.637771 12.626452 -9.935979 32.421403 -0.519022 -5.676137 2.237033 -0.076840 -0.215520 0.075810 -3.494389 -0.369072 -8.072580 7.912278 3.817949 12.021082 -0.105986 4.146345 3.123914 1.654739 4.730854 -15.689515 5.254815 -13.930455 44.578513 -2.978800 -12.297950 0.780910 -15.573406 -19.390744 7.002773 2.808886 2.738981 -0.857670 -10.975002 -29.325850 4.523106 -3.318683 3.266922 0.082950 -0.131500 0.164680 -0.055110 11.975622 19.122320 11.380142 5.874335 -2.576566 -0.423080 46.432021 38.708631 14.436561 2.706321 -1.916519 0.187620 -0.181630 -0.246800 0.043750 
0.879520 17.047260 -1.527580 -3.060171 9.573124 -3.852228 -15.146445 13.385094 2.955354 2.846004 0.867656 -1.067522 -5.281639 5.746580 10.981651 0.399187 3.734564 3.301421 0.220610 0.185330 0.317070 18.055460 -11.516614 3.121522 -9.505706 4.427460 -16.103951 13.889872 -11.141725 35.812783 -0.638494 -6.293007 2.007954 -0.058110 -0.222810 0.073120 -3.548163 -0.288765 -8.141976 8.555796 3.626452 13.333128 -0.814266 4.191495 3.617547 1.797035 5.199624 -16.066600 6.389161 -15.215498 44.184930 -2.675550 -13.622940 0.124960 -15.280770 -20.325123 7.249515 3.456094 1.706796 -1.065000 -6.527723 -26.689439 3.291620 -3.324295 3.194208 0.077550 -0.141430 0.172040 -0.046200 11.200915 20.045190 11.472315 5.422255 -0.946233 -0.739094 39.195875 37.481659 11.794033 2.679274 -1.858256 0.198520 -0.175120 -0.256690 0.055750 
0.897110 17.049570 -1.552480 -3.418979 10.575611 -4.717728 -15.147837 13.335085 2.843866 3.069148 0.938534 -0.882758 -4.686377 5.782458 12.028781 0.438829 3.729923 3.296009 0.258190 0.255490 0.306750 18.071622 -11.398877 3.298554 -10.526487 5.391675 -17.855894 15.495288 -12.573747 39.090295 -0.790879 -6.971939 1.766261 -0.028670 -0.238570 0.077350 -3.592674 -0.248310 -8.197995 9.104919 3.357401 14.422428 -1.117100 4.071732 4.169651 1.845035 5.687628 -16.351918 7.521548 -16.621722 43.315795 -1.985240 -15.164420 -0.542250 -14.919765 -21.187842 7.517537 3.855054 0.126441 -1.245633 -2.607468 -23.618572 2.325361 -3.326078 3.153946 0.048850 -0.155800 0.191890 -0.014840 10.582437 20.763531 11.441440 4.980569 0.821735 -0.924269 31.425729 35.386208 9.021163 2.670201 -1.808023 0.236170 -0.185390 -0.291120 0.089820 
0.913460 17.056000 -1.570970 -3.741313 11.552611 -5.618519 -15.177949 13.304207 2.758098 3.452662 1.056263 -0.479052 -4.418248 5.864971 12.668464 0.495994 3.738732 3.284102 0.305440 0.337120 0.312160 18.058285 -11.241736 3.480093 -11.742880 6.187571 -19.281988 17.421777 -14.048501 41.487854 -0.951156 -7.569359 1.558348 -0.000030 -0.272840 0.070850 -3.548611 -0.312014 -8.280133 9.175030 3.187825 15.582525 -0.905983 3.965155 4.442065 1.826690 6.158426 -16.836611 8.578112 -18.131693 43.376102 -0.928280 -16.978990 -1.695500 -14.729471 -22.027273 7.789435 4.299712 -1.245088 -1.373865 0.112032 -20.829021 1.727858 -3.308789 3.114015 0.036630 -0.193240 0.230640 0.015270 10.342915 21.519585 11.532206 4.408900 2.442148 -0.937183 23.803114 32.423269 6.511694 2.684897 -1.728546 0.276830 -0.187750 -0.336060 0.122990 
0.922360 17.060850 -1.586890 -3.936707 12.054373 -6.413492 -15.220483 13.253547 2.661044 3.704017 1.197612 -0.069964 -4.074981 5.933135 13.323424 0.535755 3.753295 3.274937 0.366290 0.426540 0.337800 18.043921 -11.054695 3.685664 -13.073643 7.117193 -20.967452 19.306149 -15.518968 43.865841 -1.115354 -8.178160 1.357041 0.042150 -0.306230 0.062960 -3.465353 -0.366394 -8.340422 8.867160 3.232045 16.770537 -0.569099 3.969742 4.683085 1.858969 6.775331 -17.211980 10.102126 -19.722093 42.627550 -0.280700 -18.311110 -3.005750 -14.928704 -22.756753 7.932048 5.561000 -1.915450 -1.470017 1.902357 -18.748215 1.392445 -3.292236 3.096326 0.027790 -0.222390 0.265090 0.047820 10.386657 22.167118 11.574637 4.026782 4.654716 -0.783186 15.997905 29.016035 4.296748 2.704096 -1.644412 0.307000 -0.185200 -0.389990 0.144970 
0.935110 17.071090 -1.602220 -4.333534 12.704686 -7.127357 -15.247680 13.255158 2.586206 4.214417 1.247617 0.096197 -3.971321 6.064079 14.021803 0.561307 3.794673 3.254943 0.414060 0.489420 0.361110 18.031132 -10.879005 3.871537 -14.099807 7.784918 -22.408392 20.943274 -16.719307 45.372340 -1.246170 -8.608065 1.217556 0.071970 -0.339850 0.051030 -3.414340 -0.514981 -8.422907 9.191872 2.923732 18.074829 -0.608334 3.823986 4.588793 1.883132 7.165519 -17.735412 11.130708 -20.909868 42.214292 0.728030 -19.528390 -4.527240 -15.200705 -23.370589 8.139146 6.447153 -2.146852 -1.567658 3.496293 -16.699875 1.091633 -3.274775 3.067506 0.040850 -0.259120 0.297690 0.070760 10.427931 22.782085 11.753766 3.637716 6.707677 -0.353423 9.565988 24.388296 2.612046 2.754667 -1.534080 0.322860 -0.179600 -0.431120 0.155740 
0.947290 17.077340 -1.611660 -4.765022 13.347717 -7.704189 -15.279492 13.247223 2.523337 4.731615 1.302233 0.386010 -3.873595 6.111398 14.160434 0.590458 3.806306 3.243062 0.455870 0.536830 0.393020 18.020039 -10.673214 4.070287 -15.165235 8.427712 -24.050788 22.655016 -17.987925 46.747248 -1.374824 -9.033009 1.078454 0.087130 -0.382220 0.047380 -3.354942 -0.699124 -8.517769 9.514353 2.566337 19.099428 -0.526048 3.545937 4.416001 1.899505 7.447263 -18.302352 11.917720 -22.025987 41.958219 1.188930 -20.564620 -5.581930 -15.297919 -23.911232 8.467504 6.952279 -1.809769 -1.632144 4.633913 -15.547942 0.923351 -3.245977 3.069064 0.050100 -0.294000 0.327610 0.080630 10.308221 23.382525 11.872220 3.199201 8.598752 -0.034850 4.609420 20.804609 1.589459 2.823138 -1.460438 0.346730 -0.192710 -0.467760 0.160480 
